<svg width="743"  height="609" viewBox="0 0 743 609" fill="none" xmlns="http://www.w3.org/2000/svg">
<path id="Vector 1" d="M233.929 4L335.927 57.1988L520.907 4M233.929 4L48.9485 89.1181M233.929 4L469.044 567.907M520.907 4L581.415 158.277M520.907 4L80.0666 268.221M520.907 4L183.794 605.146M520.907 4L610.804 418.951M581.415 158.277L738.734 268.221M581.415 158.277L507.077 376.392M738.734 268.221L610.804 418.951M738.734 268.221L48.9485 89.1181M738.734 268.221L4 330.286M610.804 418.951L507.077 376.392M610.804 418.951L469.044 567.907M507.077 376.392L469.044 567.907M507.077 376.392L166.506 461.51M469.044 567.907L363.588 535.988L183.794 605.146M469.044 567.907L4 330.286M183.794 605.146L166.506 461.51M166.506 461.51L93.8969 431.364L4 330.286M166.506 461.51L80.0666 268.221M4 330.286L80.0666 268.221M80.0666 268.221L48.9485 89.1181" stroke="#111827" stroke-width="15"/>
</svg>

